<svg width="210" height="210" viewBox="0 0 210 210" fill="none" xmlns="http://www.w3.org/2000/svg">
<path d="M0 0H10V10H0V0ZM10 0H20V10H10V0ZM20 0H30V10H20V0ZM30 0H40V10H30V0ZM40 0H50V10H40V0ZM50 0H60V10H50V0ZM60 0H70V10H60V0ZM80 0H90V10H80V0ZM100 0H110V10H100V0ZM110 0H120V10H110V0ZM120 0H130V10H120V0ZM140 0H150V10H140V0ZM150 0H160V10H150V0ZM160 0H170V10H160V0ZM170 0H180V10H170V0ZM180 0H190V10H180V0ZM190 0H200V10H190V0ZM200 0H210V10H200V0ZM0 10H10V20H0V10ZM60 10H70V20H60V10ZM80 10H90V20H80V10ZM90 10H100V20H90V10ZM100 10H110V20H100V10ZM110 10H120V20H110V10ZM140 10H150V20H140V10ZM200 10H210V20H200V10ZM0 20H10V30H0V20ZM20 20H30V30H20V20ZM30 20H40V30H30V20ZM40 20H50V30H40V20ZM60 20H70V30H60V20ZM80 20H90V30H80V20ZM110 20H120V30H110V20ZM140 20H150V30H140V20ZM160 20H170V30H160V20ZM170 20H180V30H170V20ZM180 20H190V30H180V20ZM200 20H210V30H200V20ZM0 30H10V40H0V30ZM20 30H30V40H20V30ZM30 30H40V40H30V30ZM40 30H50V40H40V30ZM60 30H70V40H60V30ZM80 30H90V40H80V30ZM90 30H100V40H90V30ZM100 30H110V40H100V30ZM140 30H150V40H140V30ZM160 30H170V40H160V30ZM170 30H180V40H170V30ZM180 30H190V40H180V30ZM200 30H210V40H200V30ZM0 40H10V50H0V40ZM20 40H30V50H20V40ZM30 40H40V50H30V40ZM40 40H50V50H40V40ZM60 40H70V50H60V40ZM80 40H90V50H80V40ZM90 40H100V50H90V40ZM140 40H150V50H140V40ZM160 40H170V50H160V40ZM170 40H180V50H170V40ZM180 40H190V50H180V40ZM200 40H210V50H200V40ZM0 50H10V60H0V50ZM60 50H70V60H60V50ZM100 50H110V60H100V50ZM110 50H120V60H110V50ZM120 50H130V60H120V50ZM140 50H150V60H140V50ZM200 50H210V60H200V50ZM0 60H10V70H0V60ZM10 60H20V70H10V60ZM20 60H30V70H20V60ZM30 60H40V70H30V60ZM40 60H50V70H40V60ZM50 60H60V70H50V60ZM60 60H70V70H60V60ZM80 60H90V70H80V60ZM100 60H110V70H100V60ZM120 60H130V70H120V60ZM140 60H150V70H140V60ZM150 60H160V70H150V60ZM160 60H170V70H160V60ZM170 60H180V70H170V60ZM180 60H190V70H180V60ZM190 60H200V70H190V60ZM200 60H210V70H200V60ZM80 70H90V80H80V70ZM90 70H100V80H90V70ZM100 70H110V80H100V70ZM110 70H120V80H110V70ZM120 70H130V80H120V70ZM10 80H20V90H10V80ZM20 80H30V90H20V80ZM40 80H50V90H40V80ZM60 80H70V90H60V80ZM70 80H80V90H70V80ZM110 80H120V90H110V80ZM140 80H150V90H140V80ZM160 80H170V90H160V80ZM170 80H180V90H170V80ZM180 80H190V90H180V80ZM190 80H200V90H190V80ZM200 80H210V90H200V80ZM0 90H10V100H0V90ZM10 90H20V100H10V90ZM30 90H40V100H30V90ZM40 90H50V100H40V90ZM80 90H90V100H80V90ZM90 90H100V100H90V90ZM110 90H120V100H110V90ZM120 90H130V100H120V90ZM140 90H150V100H140V90ZM170 90H180V100H170V90ZM190 90H200V100H190V90ZM200 90H210V100H200V90ZM0 100H10V110H0V100ZM30 100H40V110H30V100ZM50 100H60V110H50V100ZM60 100H70V110H60V100ZM90 100H100V110H90V100ZM100 100H110V110H100V100ZM160 100H170V110H160V100ZM170 100H180V110H170V100ZM180 100H190V110H180V100ZM190 100H200V110H190V100ZM200 100H210V110H200V100ZM40 110H50V120H40V110ZM50 110H60V120H50V110ZM70 110H80V120H70V110ZM80 110H90V120H80V110ZM100 110H110V120H100V110ZM110 110H120V120H110V110ZM140 110H150V120H140V110ZM180 110H190V120H180V110ZM190 110H200V120H190V110ZM10 120H20V130H10V120ZM30 120H40V130H30V120ZM40 120H50V130H40V120ZM50 120H60V130H50V120ZM60 120H70V130H60V120ZM80 120H90V130H80V120ZM90 120H100V130H90V120ZM100 120H110V130H100V120ZM110 120H120V130H110V120ZM120 120H130V130H120V120ZM140 120H150V130H140V120ZM160 120H170V130H160V120ZM180 120H190V130H180V120ZM190 120H200V130H190V120ZM80 130H90V140H80V130ZM110 130H120V140H110V130ZM130 130H140V140H130V130ZM150 130H160V140H150V130ZM180 130H190V140H180V130ZM0 140H10V150H0V140ZM10 140H20V150H10V140ZM20 140H30V150H20V140ZM30 140H40V150H30V140ZM40 140H50V150H40V140ZM50 140H60V150H50V140ZM60 140H70V150H60V140ZM80 140H90V150H80V140ZM90 140H100V150H90V140ZM100 140H110V150H100V140ZM130 140H140V150H130V140ZM140 140H150V150H140V140ZM150 140H160V150H150V140ZM200 140H210V150H200V140ZM0 150H10V160H0V150ZM60 150H70V160H60V150ZM100 150H110V160H100V150ZM120 150H130V160H120V150ZM130 150H140V160H130V150ZM150 150H160V160H150V150ZM160 150H170V160H160V150ZM200 150H210V160H200V150ZM0 160H10V170H0V160ZM20 160H30V170H20V160ZM30 160H40V170H30V160ZM40 160H50V170H40V160ZM60 160H70V170H60V160ZM80 160H90V170H80V160ZM100 160H110V170H100V160ZM130 160H140V170H130V160ZM140 160H150V170H140V160ZM150 160H160V170H150V160ZM170 160H180V170H170V160ZM180 160H190V170H180V160ZM200 160H210V170H200V160ZM0 170H10V180H0V170ZM20 170H30V180H20V170ZM30 170H40V180H30V170ZM40 170H50V180H40V170ZM60 170H70V180H60V170ZM90 170H100V180H90V170ZM100 170H110V180H100V170ZM140 170H150V180H140V170ZM150 170H160V180H150V170ZM180 170H190V180H180V170ZM190 170H200V180H190V170ZM0 180H10V190H0V180ZM20 180H30V190H20V180ZM30 180H40V190H30V180ZM40 180H50V190H40V180ZM60 180H70V190H60V180ZM80 180H90V190H80V180ZM90 180H100V190H90V180ZM100 180H110V190H100V180ZM120 180H130V190H120V180ZM160 180H170V190H160V180ZM180 180H190V190H180V180ZM200 180H210V190H200V180ZM0 190H10V200H0V190ZM60 190H70V200H60V190ZM80 190H90V200H80V190ZM140 190H150V200H140V190ZM150 190H160V200H150V190ZM190 190H200V200H190V190ZM200 190H210V200H200V190ZM0 200H10V210H0V200ZM10 200H20V210H10V200ZM20 200H30V210H20V200ZM30 200H40V210H30V200ZM40 200H50V210H40V200ZM50 200H60V210H50V200ZM60 200H70V210H60V200ZM90 200H100V210H90V200ZM100 200H110V210H100V200ZM120 200H130V210H120V200ZM140 200H150V210H140V200ZM160 200H170V210H160V200ZM180 200H190V210H180V200ZM200 200H210V210H200V200Z" fill="black"/>
</svg>
