<svg width="40" height="40" viewBox="0 0 40 40" fill="none" xmlns="http://www.w3.org/2000/svg">
<path fill-rule="evenodd" clip-rule="evenodd" d="M22.2222 14.4444H33.3333V10H22.2222V14.4444ZM22.2222 30H33.3333V25.5556H22.2222V30ZM35.5556 40H4.44444C2 40 0 38 0 35.5556V4.44444C0 2 2 0 4.44444 0H35.5556C38 0 40 2 40 4.44444V35.5556C40 38 38 40 35.5556 40ZM6.66667 17.7778H17.7778V6.66667H6.66667V17.7778ZM8.88889 8.88889H15.5556V15.5556H8.88889V8.88889ZM6.66667 33.3333H17.7778V22.2222H6.66667V33.3333ZM8.88889 24.4444H15.5556V31.1111H8.88889V24.4444Z" fill="#203F66"/>
</svg>
