<svg width="63" height="63" viewBox="0 0 63 63" fill="none" xmlns="http://www.w3.org/2000/svg">
<g filter="url(#filter0_d_309_20)">
<path d="M31.5 0C16.32 0 4 12.1386 4 27.095C4 42.0514 16.32 54.19 31.5 54.19C46.68 54.19 59 42.0514 59 27.095C59 12.1386 46.68 0 31.5 0ZM31.5 8.1285C36.065 8.1285 39.75 11.7592 39.75 16.257C39.75 20.7548 36.065 24.3855 31.5 24.3855C26.935 24.3855 23.25 20.7548 23.25 16.257C23.25 11.7592 26.935 8.1285 31.5 8.1285ZM31.5 46.6034C24.625 46.6034 18.5475 43.1352 15 37.8788C15.0825 32.4869 26 29.5335 31.5 29.5335C36.9725 29.5335 47.9175 32.4869 48 37.8788C44.4525 43.1352 38.375 46.6034 31.5 46.6034Z" fill="white"/>
</g>
<defs>
<filter id="filter0_d_309_20" x="0" y="0" width="63" height="62.1899" filterUnits="userSpaceOnUse" color-interpolation-filters="sRGB">
<feFlood flood-opacity="0" result="BackgroundImageFix"/>
<feColorMatrix in="SourceAlpha" type="matrix" values="0 0 0 0 0 0 0 0 0 0 0 0 0 0 0 0 0 0 127 0" result="hardAlpha"/>
<feOffset dy="4"/>
<feGaussianBlur stdDeviation="2"/>
<feComposite in2="hardAlpha" operator="out"/>
<feColorMatrix type="matrix" values="0 0 0 0 0 0 0 0 0 0 0 0 0 0 0 0 0 0 0.25 0"/>
<feBlend mode="normal" in2="BackgroundImageFix" result="effect1_dropShadow_309_20"/>
<feBlend mode="normal" in="SourceGraphic" in2="effect1_dropShadow_309_20" result="shape"/>
</filter>
</defs>
</svg>
